<svg xmlns="http://www.w3.org/2000/svg" xmlns:xlink="http://www.w3.org/1999/xlink" width="121.958" height="37.762" viewBox="0 0 121.958 37.762"><defs><style>.a{fill:#fff;}.b{fill:#5bc8f3;}.c{fill:url(#a);}.d{fill:url(#b);}.e{fill:url(#c);}</style><linearGradient id="a" x1="0.808" y1="0.5" x2="-1.573" y2="0.5" gradientUnits="objectBoundingBox"><stop offset="0" stop-color="#ffdf00"/><stop offset="0.409" stop-color="#fbbc0e"/><stop offset="0.775" stop-color="#f8a318"/><stop offset="1" stop-color="#f89b1c"/></linearGradient><linearGradient id="b" x1="0.862" y1="0.178" x2="-0.501" y2="1.948" gradientUnits="objectBoundingBox"><stop offset="0" stop-color="#ee4447"/><stop offset="1" stop-color="#c5166c"/></linearGradient><linearGradient id="c" x1="-0.508" y1="-0.956" x2="0.606" y2="0.489" gradientUnits="objectBoundingBox"><stop offset="0" stop-color="#269e6f"/><stop offset="0.051" stop-color="#2ba06e"/><stop offset="0.466" stop-color="#52b26a"/><stop offset="0.797" stop-color="#6bbc68"/><stop offset="1" stop-color="#74c168"/></linearGradient></defs><g transform="translate(-384.484 -259.928)"><rect width="121.958" height="37.762" rx="2.383" transform="translate(384.484 259.928)"/><path class="a" d="M435.057,275.42a3.877,3.877,0,1,0,3.892,3.876A3.821,3.821,0,0,0,435.057,275.42Zm0,6.226a2.356,2.356,0,1,1,2.187-2.35A2.243,2.243,0,0,1,435.057,281.646Zm-8.489-6.226a3.877,3.877,0,1,0,3.892,3.876A3.821,3.821,0,0,0,426.568,275.42Zm0,6.226a2.356,2.356,0,1,1,2.187-2.35A2.244,2.244,0,0,1,426.568,281.646Zm-10.1-5.037v1.643h3.937a3.433,3.433,0,0,1-.9,2.071,4.03,4.03,0,0,1-3.041,1.2,4.377,4.377,0,0,1,0-8.753,4.2,4.2,0,0,1,2.967,1.175l1.161-1.161a5.74,5.74,0,0,0-4.128-1.659,6.022,6.022,0,1,0,0,12.043,5.506,5.506,0,0,0,4.2-1.689,5.922,5.922,0,0,0,1.337-4.875Zm41.3,1.277a3.6,3.6,0,0,0-3.319-2.467,3.684,3.684,0,0,0-3.656,3.876,3.794,3.794,0,0,0,3.847,3.878,3.853,3.853,0,0,0,3.23-1.718l-1.321-.881a2.215,2.215,0,0,1-1.91,1.072,1.971,1.971,0,0,1-1.879-1.175l5.184-2.144Zm-5.287,1.293a2.126,2.126,0,0,1,2.026-2.262,1.5,1.5,0,0,1,1.44.822Zm-4.215,3.758h1.7v-11.4h-1.7Zm-2.79-6.652h-.06a2.684,2.684,0,0,0-2.041-.865,3.88,3.88,0,0,0,0,7.754,2.641,2.641,0,0,0,2.041-.881h.06v.559c0,1.484-.794,2.276-2.071,2.276a2.146,2.146,0,0,1-1.953-1.38l-1.484.617a3.694,3.694,0,0,0,3.437,2.291c2,0,3.685-1.175,3.685-4.039v-6.961h-1.614Zm-1.953,5.361a2.358,2.358,0,0,1,0-4.7,2.369,2.369,0,0,1,0,4.7Zm22.223-10.1h-4.075v11.4h1.7v-4.317h2.375a3.545,3.545,0,1,0,0-7.079Zm.044,5.492h-2.419v-3.905h2.419a1.953,1.953,0,1,1,0,3.905ZM476.3,275.4a3.193,3.193,0,0,0-3.035,1.745l1.51.63a1.613,1.613,0,0,1,1.555-.835,1.637,1.637,0,0,1,1.787,1.466v.116a3.757,3.757,0,0,0-1.773-.439c-1.628,0-3.284.894-3.284,2.566a2.633,2.633,0,0,0,2.829,2.507,2.4,2.4,0,0,0,2.17-1.114h.058v.878h1.642V278.55C479.763,276.527,478.254,275.4,476.3,275.4Zm-.207,6.245c-.557,0-1.334-.278-1.334-.967,0-.88.967-1.217,1.8-1.217a3.013,3.013,0,0,1,1.553.383A2.06,2.06,0,0,1,476.1,281.644Zm9.647-6-1.95,4.941h-.058l-2.023-4.941h-1.833l3.035,6.9-1.731,3.841h1.774l4.676-10.745Zm-15.319,7.289h1.7v-11.4h-1.7Z" transform="translate(11.759 5.091)"/><g transform="translate(393.798 267.201)"><path class="b" d="M391.31,265.2a1.825,1.825,0,0,0-.422,1.28v20.144a1.822,1.822,0,0,0,.422,1.278l.067.067,11.283-11.285v-.266l-11.283-11.283Z" transform="translate(-390.888 -264.836)"/><path class="c" d="M402.743,278.1l-3.761-3.764v-.266l3.763-3.761.084.048,4.456,2.532c1.273.723,1.273,1.907,0,2.63l-4.456,2.532Z" transform="translate(-387.21 -262.486)"/><path class="d" d="M406.375,276.829l-3.847-3.847-11.35,11.35a1.48,1.48,0,0,0,1.892.057l13.3-7.56" transform="translate(-390.756 -261.269)"/><path class="e" d="M406.375,272.795l-13.3-7.56a1.482,1.482,0,0,0-1.892.055l11.35,11.352Z" transform="translate(-390.756 -264.928)"/></g><g transform="translate(423.861 266.348)"><path class="a" d="M411.558,265.2h1.454a2.73,2.73,0,0,1,.051,5.457h-1.505Zm1.392,4.673c1.1,0,1.728-.624,1.728-1.966s-.63-1.923-1.728-1.923h-.425v3.889Z" transform="translate(-411.558 -263.951)"/><path class="a" d="M415.011,265.439a.6.6,0,1,1,.593.544A.549.549,0,0,1,415.011,265.439Zm.111,1.262h.961v4.1h-.961Z" transform="translate(-409.989 -264.091)"/><path class="a" d="M416.307,269.8l.448-.611a1.807,1.807,0,0,0,1.132.457c.447,0,.657-.211.657-.49,0-.345-.444-.5-.881-.665-.537-.2-1.152-.51-1.152-1.2,0-.711.575-1.225,1.492-1.225a2.213,2.213,0,0,1,1.363.49l-.442.592a1.527,1.527,0,0,0-.9-.358c-.412,0-.608.2-.608.454,0,.324.414.448.858.611.554.208,1.175.474,1.175,1.238,0,.705-.557,1.273-1.593,1.273A2.567,2.567,0,0,1,416.307,269.8Z" transform="translate(-409.4 -263.558)"/><path class="a" d="M419.061,266.168h.787l.074.436h.026a1.98,1.98,0,0,1,1.235-.537c1.025,0,1.613.822,1.613,2.086,0,1.4-.838,2.214-1.75,2.214a1.634,1.634,0,0,1-1.054-.451l.031.681v1.292h-.961Zm2.746,2c0-.817-.266-1.3-.89-1.3a1.3,1.3,0,0,0-.895.461v1.91a1.274,1.274,0,0,0,.82.34C421.391,269.573,421.807,269.092,421.807,268.164Z" transform="translate(-408.149 -263.558)"/><path class="a" d="M422.11,268.221a1.959,1.959,0,1,1,1.949,2.147A1.985,1.985,0,0,1,422.11,268.221Zm2.91,0c0-.82-.361-1.369-.961-1.369s-.961.548-.961,1.369.361,1.363.961,1.363S425.02,269.042,425.02,268.221Z" transform="translate(-406.763 -263.558)"/><path class="a" d="M425.444,266.168h.788l.073.554h.026a1.915,1.915,0,0,1,1.347-.655c.877,0,1.261.595,1.261,1.629v2.57h-.961v-2.446c0-.675-.193-.928-.638-.928a1.288,1.288,0,0,0-.934.51v2.864h-.961Z" transform="translate(-405.248 -263.558)"/><path class="a" d="M428.645,265.8l1.232-1.456.66.637-1.412,1.293Zm.013,1.155h.961v4.1h-.961Z" transform="translate(-403.793 -264.342)"/><path class="a" d="M429.8,266.137h.974l.65,2.126c.113.4.234.823.348,1.235h.034c.113-.412.234-.83.348-1.235l.65-2.126h.928l-1.392,4.1h-1.111Z" transform="translate(-403.267 -263.526)"/><path class="a" d="M432.775,268.221a2,2,0,0,1,1.889-2.153c1.108,0,1.693.8,1.693,1.946a2.463,2.463,0,0,1-.042.467h-2.6a1.166,1.166,0,0,0,1.209,1.142,1.756,1.756,0,0,0,.951-.3l.327.6a2.544,2.544,0,0,1-1.4.444A1.979,1.979,0,0,1,432.775,268.221Zm2.75-.394c0-.63-.281-1.014-.841-1.014a1.029,1.029,0,0,0-.982,1.014Z" transform="translate(-401.917 -263.558)"/><path class="a" d="M435.868,269.742V264.9h.961v4.89c0,.237.108.321.208.321a.543.543,0,0,0,.15-.017l.121.717a1.327,1.327,0,0,1-.508.084C436.118,270.9,435.868,270.456,435.868,269.742Z" transform="translate(-400.511 -264.088)"/><path class="a" d="M438.569,266.168h.788l.073.554h.028a1.909,1.909,0,0,1,1.345-.655c.877,0,1.261.595,1.261,1.629v2.57H441.1v-2.446c0-.675-.193-.928-.638-.928a1.288,1.288,0,0,0-.934.51v2.864h-.961Z" transform="translate(-399.284 -263.558)"/><path class="a" d="M441.628,269.166c0-.878.727-1.335,2.409-1.515-.013-.441-.191-.809-.743-.809a2.268,2.268,0,0,0-1.152.4l-.355-.641a3.2,3.2,0,0,1,1.683-.537c1.025,0,1.529.631,1.529,1.773v2.426h-.787l-.074-.454h-.026a1.982,1.982,0,0,1-1.271.554A1.148,1.148,0,0,1,441.628,269.166Zm2.409,0v-.921c-1.111.14-1.482.431-1.482.844,0,.362.247.521.592.521A1.291,1.291,0,0,0,444.037,269.169Z" transform="translate(-397.894 -263.558)"/></g></g></svg>