<svg xmlns="http://www.w3.org/2000/svg" width="121.958" height="37.762" viewBox="0 0 121.958 37.762"><defs><style>.a{fill:#fff;}</style></defs><g transform="translate(-785.254 -438.409)"><g transform="translate(785.254 438.409)"><rect width="121.958" height="37.762" rx="2.383"/><g transform="translate(11.016 6.669)"><g transform="translate(0 5.634)"><path class="a" d="M503.779,275.175a5.31,5.31,0,0,1,2.528-4.453,5.431,5.431,0,0,0-4.282-2.315c-1.8-.189-3.547,1.079-4.464,1.079-.937,0-2.352-1.06-3.873-1.03a5.707,5.707,0,0,0-4.8,2.928c-2.074,3.592-.527,8.87,1.46,11.775.995,1.422,2.157,3.011,3.678,2.954,1.486-.063,2.042-.948,3.838-.948,1.78,0,2.3.948,3.854.912,1.6-.026,2.6-1.428,3.56-2.864a11.661,11.661,0,0,0,1.629-3.318,5.128,5.128,0,0,1-3.131-4.72" transform="translate(-487.905 -268.387)"/></g><g transform="translate(9.444)"><path class="a" d="M497.9,268.257a5.217,5.217,0,0,0,1.2-3.744,5.311,5.311,0,0,0-3.44,1.78,4.963,4.963,0,0,0-1.228,3.605,4.4,4.4,0,0,0,3.472-1.642" transform="translate(-494.398 -264.513)"/></g><g transform="translate(27.123 10.793)"><g transform="translate(0 0.182)"><path class="a" d="M516.809,284.208h-2.073l-1.136-3.569h-3.946l-1.083,3.569h-2.017l3.912-12.149h2.413Zm-3.55-5.067-1.025-3.172q-.166-.484-.614-2.288h-.036q-.181.777-.577,2.288L510,279.141Z" transform="translate(-506.554 -272.059)"/></g><g transform="translate(11.878 3.389)"><path class="a" d="M523.157,278.717a4.979,4.979,0,0,1-1.207,3.533,3.532,3.532,0,0,1-2.685,1.153,2.693,2.693,0,0,1-2.49-1.244h-.034v4.613h-1.949v-9.445q0-1.4-.071-2.884h1.712l.109,1.389h.036a3.461,3.461,0,0,1,5.543-.342,4.828,4.828,0,0,1,1.036,3.226m-1.982.071a3.612,3.612,0,0,0-.577-2.109,1.99,1.99,0,0,0-1.693-.865,2.02,2.02,0,0,0-1.307.477,2.234,2.234,0,0,0-.766,1.255,2.553,2.553,0,0,0-.089.592V279.6a2.338,2.338,0,0,0,.583,1.613,1.943,1.943,0,0,0,1.524.657,1.988,1.988,0,0,0,1.712-.846,3.72,3.72,0,0,0,.614-2.235" transform="translate(-514.721 -274.264)"/></g><g transform="translate(21.956 3.389)"><path class="a" d="M530.083,278.717a4.98,4.98,0,0,1-1.207,3.533,3.531,3.531,0,0,1-2.686,1.153,2.687,2.687,0,0,1-2.486-1.244h-.036v4.613h-1.946v-9.445q0-1.4-.071-2.884h1.71l.109,1.389h.038a3.46,3.46,0,0,1,5.541-.342,4.827,4.827,0,0,1,1.034,3.226m-1.981.071a3.6,3.6,0,0,0-.577-2.109,1.991,1.991,0,0,0-1.694-.865,2.016,2.016,0,0,0-1.306.477,2.216,2.216,0,0,0-.765,1.255,2.434,2.434,0,0,0-.092.592V279.6a2.339,2.339,0,0,0,.585,1.613,1.938,1.938,0,0,0,1.526.657,1.987,1.987,0,0,0,1.71-.846,3.74,3.74,0,0,0,.614-2.235" transform="translate(-521.65 -274.264)"/></g><g transform="translate(34.118)"><path class="a" d="M537.55,280.857a3.23,3.23,0,0,1-1.081,2.523,4.776,4.776,0,0,1-3.307,1.063,5.805,5.805,0,0,1-3.15-.756l.451-1.622a5.347,5.347,0,0,0,2.816.774,2.659,2.659,0,0,0,1.713-.495,1.624,1.624,0,0,0,.612-1.328,1.693,1.693,0,0,0-.5-1.245,4.689,4.689,0,0,0-1.678-.94q-3.19-1.193-3.188-3.485a3.08,3.08,0,0,1,1.117-2.455,4.409,4.409,0,0,1,2.974-.958,5.9,5.9,0,0,1,2.758.577L536.6,274.1a4.8,4.8,0,0,0-2.327-.559,2.346,2.346,0,0,0-1.6.5,1.446,1.446,0,0,0-.486,1.1,1.481,1.481,0,0,0,.557,1.188,6.26,6.26,0,0,0,1.767.938,6.007,6.007,0,0,1,2.307,1.478,3.094,3.094,0,0,1,.739,2.109" transform="translate(-530.012 -271.934)"/></g><g transform="translate(42.755 1.388)"><path class="a" d="M541.287,276.53h-2.145v4.254q0,1.623,1.136,1.622a3.506,3.506,0,0,0,.864-.089l.054,1.478a4.39,4.39,0,0,1-1.513.215,2.33,2.33,0,0,1-1.8-.7,3.457,3.457,0,0,1-.649-2.362V276.53h-1.28v-1.46h1.28v-1.6l1.911-.577v2.182h2.145Z" transform="translate(-535.951 -272.888)"/></g><g transform="translate(49.191 3.389)"><path class="a" d="M548.956,278.752a4.811,4.811,0,0,1-1.152,3.318A4.122,4.122,0,0,1,544.6,283.4a3.916,3.916,0,0,1-3.075-1.28,4.656,4.656,0,0,1-1.145-3.224,4.754,4.754,0,0,1,1.181-3.335,4.08,4.08,0,0,1,3.181-1.3,4.009,4.009,0,0,1,3.1,1.28,4.619,4.619,0,0,1,1.117,3.208m-2.019.064a3.948,3.948,0,0,0-.524-2.078,1.92,1.92,0,0,0-1.747-1.049,1.947,1.947,0,0,0-1.785,1.049,4.009,4.009,0,0,0-.522,2.116,3.926,3.926,0,0,0,.522,2.077,1.963,1.963,0,0,0,1.767,1.049,1.942,1.942,0,0,0,1.747-1.066,3.946,3.946,0,0,0,.541-2.1" transform="translate(-540.376 -274.264)"/></g><g transform="translate(59.411 3.389)"><path class="a" d="M552.089,276.156a3.55,3.55,0,0,0-.612-.054,1.848,1.848,0,0,0-1.588.777,2.926,2.926,0,0,0-.486,1.729v4.6h-1.945l.016-6q0-1.514-.071-2.759H549.1l.073,1.678h.052a3.007,3.007,0,0,1,.973-1.389,2.357,2.357,0,0,1,1.408-.47,3.244,3.244,0,0,1,.486.035Z" transform="translate(-547.403 -274.264)"/></g><g transform="translate(65.017 3.371)"><path class="a" d="M559.042,278.416a4.729,4.729,0,0,1-.07.883h-5.839a2.542,2.542,0,0,0,.846,1.984,2.891,2.891,0,0,0,1.911.611,6.461,6.461,0,0,0,2.361-.413l.305,1.353a7.342,7.342,0,0,1-2.938.541,4.249,4.249,0,0,1-3.2-1.2,4.429,4.429,0,0,1-1.162-3.217,5.028,5.028,0,0,1,1.082-3.3,3.733,3.733,0,0,1,3.063-1.4,3.27,3.27,0,0,1,2.87,1.4,4.751,4.751,0,0,1,.771,2.759m-1.856-.5a2.64,2.64,0,0,0-.377-1.5,1.7,1.7,0,0,0-1.552-.812,1.852,1.852,0,0,0-1.549.794,2.88,2.88,0,0,0-.576,1.514Z" transform="translate(-551.257 -274.252)"/></g></g></g><g transform="translate(39.377 6.225)"><path class="a" d="M507.405,265.069h1.454a2.73,2.73,0,0,1,.051,5.457h-1.505Zm1.392,4.673c1.1,0,1.729-.624,1.729-1.966s-.631-1.923-1.729-1.923h-.425v3.889Z" transform="translate(-507.405 -263.817)"/><path class="a" d="M510.858,265.3a.6.6,0,1,1,.593.544A.549.549,0,0,1,510.858,265.3Zm.111,1.262h.961v4.1h-.961Z" transform="translate(-505.836 -263.957)"/><path class="a" d="M512.154,269.663l.448-.611a1.807,1.807,0,0,0,1.132.457c.447,0,.657-.211.657-.49,0-.343-.444-.5-.881-.665-.537-.2-1.152-.51-1.152-1.2,0-.71.575-1.225,1.492-1.225a2.214,2.214,0,0,1,1.363.492l-.442.59a1.523,1.523,0,0,0-.9-.358c-.412,0-.608.2-.608.454,0,.324.414.448.858.611.554.208,1.175.474,1.175,1.239,0,.7-.557,1.271-1.593,1.271A2.567,2.567,0,0,1,512.154,269.663Z" transform="translate(-505.247 -263.424)"/><path class="a" d="M514.908,266.034h.787l.074.438h.026a1.978,1.978,0,0,1,1.235-.538c1.025,0,1.613.822,1.613,2.086,0,1.4-.838,2.214-1.75,2.214a1.634,1.634,0,0,1-1.055-.451l.031.681v1.293h-.961Zm2.746,2c0-.819-.266-1.3-.89-1.3a1.3,1.3,0,0,0-.895.461v1.91a1.274,1.274,0,0,0,.82.34C517.238,269.439,517.654,268.958,517.654,268.031Z" transform="translate(-503.996 -263.424)"/><path class="a" d="M517.957,268.087a1.959,1.959,0,1,1,1.949,2.147A1.986,1.986,0,0,1,517.957,268.087Zm2.91,0c0-.82-.361-1.369-.961-1.369s-.961.548-.961,1.369.361,1.363.961,1.363S520.867,268.908,520.867,268.087Z" transform="translate(-502.61 -263.424)"/><path class="a" d="M521.291,266.034h.788l.073.554h.028a1.91,1.91,0,0,1,1.345-.654c.877,0,1.261.595,1.261,1.629v2.57h-.961v-2.446c0-.675-.193-.928-.637-.928a1.288,1.288,0,0,0-.935.51v2.864h-.961Z" transform="translate(-501.095 -263.424)"/><path class="a" d="M524.492,265.664l1.232-1.456.66.637-1.411,1.293Zm.013,1.155h.961v4.1h-.961Z" transform="translate(-499.64 -264.208)"/><path class="a" d="M525.651,266h.974l.65,2.126c.113.4.234.825.348,1.235h.033c.113-.41.234-.83.348-1.235l.65-2.126h.928l-1.392,4.1h-1.111Z" transform="translate(-499.114 -263.392)"/><path class="a" d="M528.622,268.087a2,2,0,0,1,1.889-2.153c1.108,0,1.693.8,1.693,1.946a2.5,2.5,0,0,1-.042.468h-2.6a1.165,1.165,0,0,0,1.209,1.14,1.744,1.744,0,0,0,.951-.3l.327.6a2.544,2.544,0,0,1-1.4.444A1.979,1.979,0,0,1,528.622,268.087Zm2.75-.394c0-.63-.279-1.014-.841-1.014a1.029,1.029,0,0,0-.982,1.014Z" transform="translate(-497.764 -263.424)"/><path class="a" d="M531.716,269.608v-4.84h.961v4.891c0,.236.106.32.206.32a.538.538,0,0,0,.15-.017l.121.719a1.36,1.36,0,0,1-.508.083C531.966,270.763,531.716,270.322,531.716,269.608Z" transform="translate(-496.358 -263.954)"/><path class="a" d="M534.416,266.034h.788l.073.554h.028a1.909,1.909,0,0,1,1.345-.654c.877,0,1.261.595,1.261,1.629v2.57h-.961v-2.446c0-.675-.193-.928-.637-.928a1.288,1.288,0,0,0-.935.51v2.864h-.961Z" transform="translate(-495.131 -263.424)"/><path class="a" d="M537.475,269.032c0-.878.727-1.335,2.409-1.516-.013-.441-.189-.809-.743-.809a2.272,2.272,0,0,0-1.152.4l-.353-.64a3.179,3.179,0,0,1,1.681-.538c1.025,0,1.529.631,1.529,1.773v2.426h-.787l-.074-.454h-.026a1.979,1.979,0,0,1-1.271.554A1.148,1.148,0,0,1,537.475,269.032Zm2.409,0v-.921c-1.111.14-1.482.431-1.482.844,0,.364.247.521.592.521A1.288,1.288,0,0,0,539.884,269.035Z" transform="translate(-493.741 -263.424)"/></g></g></g></svg>